Uploader's Note : No Extra Watermark ! Enjoy !



Screen Link : ---


 
http://www.shotpix.com/images/99086359456493811783.jpg



Extra Screenshots : ---


  
http://www.shotpix.com/images/05691259542941058740.jpg
  
http://www.shotpix.com/images/52928615629492605445.jpg
  
http://www.shotpix.com/images/44575256839997299041.jpg
  
http://www.shotpix.com/images/03038657117725612229.jpg



General Info : ---



Format                           : AVI
Format/Info                      : Audio Video Interleave
File size                        : 699 MiB
Duration                         : 2h 8mn
Overall bit rate                 : 762 Kbps

Video
ID                               : 0
Format                           : MPEG-4 Visual
Format profile                   : Advanced Simple@L5
Format settings, BVOP            : 1
Format settings, QPel            : No
Format settings, GMC             : No warppoints
Format settings, Matrix          : Custom
Codec ID                         : XVID
Codec ID/Hint                    : XviD
Duration                         : 2h 8mn
Bit rate                         : 645 Kbps
Width                            : 608 pixels
Height                           : 272 pixels
Display aspect ratio             : 2.25:1
Frame rate                       : 29.970 fps
Color space                      : YUV
Chroma subsampling               : 4:2:0
Bit depth                        : 8 bits
Scan type                        : Progressive
Compression mode                 : Lossy
Bits/(Pixel*Frame)               : 0.130
Stream size                      : 592 MiB (85%)

Audio
ID                               : 1
Format                           : MPEG Audio
Format version                   : Version 1
Format profile                   : Layer 3
Mode                             : Joint stereo
Mode extension                   : MS Stereo
Codec ID                         : 55
Codec ID/Hint                    : MP3
Duration                         : 2h 8mn
Bit rate mode                    : Variable
Bit rate                         : 103 Kbps
Nominal bit rate                 : 128 Kbps
Channel(s)                       : 2 channels
Sampling rate                    : 48.0 KHz
Compression mode                 : Lossy
Stream size                      : 94.1 MiB (13%)



